<?xml version="1.0" encoding="UTF-8"?>
<!-- Generated by Pixelmator Pro 3.5.3 -->
<svg width="161" height="34" viewBox="0 0 161 34" xmlns="http://www.w3.org/2000/svg">
    <path id="Spinbara" fill="#ffffff" fill-rule="evenodd" stroke="none" d="M 133.672852 23.268555 C 133.672852 24.13184 133.988281 24.812496 134.619141 25.310547 C 135.25 25.808598 135.99707 26.057617 136.860352 26.057617 C 137.911789 26.057617 138.930008 25.814129 139.915039 25.327148 C 141.575211 24.519201 142.405273 23.196625 142.405273 21.359375 L 142.405273 18.952148 C 142.040039 19.18457 141.569672 19.378254 140.994141 19.533203 C 140.41861 19.688152 139.854172 19.798828 139.300781 19.865234 L 137.491211 20.097656 C 136.40657 20.241537 135.593109 20.468422 135.050781 20.77832 C 134.132156 21.298504 133.672852 22.128574 133.672852 23.268555 Z M 140.911133 17.225586 C 141.597336 17.137043 142.056641 16.849287 142.289063 16.362305 C 142.421875 16.096678 142.488281 15.714846 142.488281 15.216797 C 142.488281 14.198563 142.125824 13.459801 141.400879 13.000488 C 140.675934 12.541176 139.638351 12.311523 138.288086 12.311523 C 136.727524 12.311523 135.620773 12.732092 134.967773 13.573242 C 134.602539 14.038088 134.364578 14.729813 134.253906 15.648438 L 131.464844 15.648438 C 131.520187 13.45702 132.231277 11.932459 133.598145 11.074707 C 134.965012 10.216955 136.550446 9.788086 138.354492 9.788086 C 140.446304 9.788086 142.145172 10.18652 143.451172 10.983398 C 144.746094 11.780277 145.393555 13.019848 145.393555 14.702148 L 145.393555 24.945313 C 145.393555 25.255211 145.457199 25.50423 145.584473 25.692383 C 145.711746 25.880535 145.980148 25.974609 146.389648 25.974609 C 146.522461 25.974609 146.671875 25.966309 146.837891 25.949707 C 147.003906 25.933105 147.180984 25.908203 147.369141 25.875 L 147.369141 28.083008 C 146.904297 28.21582 146.550125 28.298828 146.306641 28.332031 C 146.063156 28.365234 145.731125 28.381836 145.310547 28.381836 C 144.28125 28.381836 143.53418 28.016605 143.069336 27.286133 C 142.825851 26.898762 142.654297 26.350914 142.554688 25.642578 C 141.945953 26.439457 141.071625 27.131182 139.931641 27.717773 C 138.791656 28.304365 137.535492 28.597656 136.163086 28.597656 C 134.513992 28.597656 133.166504 28.096848 132.120605 27.095215 C 131.074707 26.093582 130.551758 24.840176 130.551758 23.334961 C 130.551758 21.685863 131.066406 20.407557 132.095703 19.5 C 133.125 18.592443 134.47525 18.033529 136.146484 17.823242 Z M 120.142578 10.219727 L 122.981445 10.219727 L 122.981445 13.291016 C 123.213867 12.693356 123.783852 11.965662 124.691406 11.10791 C 125.598961 10.250158 126.644852 9.821289 127.829102 9.821289 C 127.884438 9.821289 127.978516 9.826822 128.111328 9.837891 C 128.244141 9.848959 128.471024 9.871094 128.791992 9.904297 L 128.791992 13.058594 C 128.614914 13.025391 128.45166 13.003256 128.302246 12.992188 C 128.152832 12.981119 127.989586 12.975586 127.8125 12.975586 C 126.307281 12.975586 125.150719 13.459793 124.342773 14.428223 C 123.534828 15.396652 123.130859 16.511713 123.130859 17.773438 L 123.130859 28 L 120.142578 28 Z M 103.441406 23.268555 C 103.441406 24.13184 103.756836 24.812496 104.387695 25.310547 C 105.018555 25.808598 105.765617 26.057617 106.628906 26.057617 C 107.680344 26.057617 108.698563 25.814129 109.683594 25.327148 C 111.343758 24.519201 112.173828 23.196625 112.173828 21.359375 L 112.173828 18.952148 C 111.808594 19.18457 111.338219 19.378254 110.762695 19.533203 C 110.187172 19.688152 109.622726 19.798828 109.069336 19.865234 L 107.259766 20.097656 C 106.175125 20.241537 105.361656 20.468422 104.819336 20.77832 C 103.900711 21.298504 103.441406 22.128574 103.441406 23.268555 Z M 110.679688 17.225586 C 111.365891 17.137043 111.825195 16.849287 112.057617 16.362305 C 112.19043 16.096678 112.256836 15.714846 112.256836 15.216797 C 112.256836 14.198563 111.894371 13.459801 111.169434 13.000488 C 110.444496 12.541176 109.406906 12.311523 108.056641 12.311523 C 106.496086 12.311523 105.389328 12.732092 104.736328 13.573242 C 104.371094 14.038088 104.133141 14.729813 104.022461 15.648438 L 101.233398 15.648438 C 101.288734 13.45702 101.999832 11.932459 103.366699 11.074707 C 104.733566 10.216955 106.319 9.788086 108.123047 9.788086 C 110.214851 9.788086 111.913727 10.18652 113.219727 10.983398 C 114.514656 11.780277 115.162109 13.019848 115.162109 14.702148 L 115.162109 24.945313 C 115.162109 25.255211 115.225746 25.50423 115.353027 25.692383 C 115.480309 25.880535 115.748695 25.974609 116.158203 25.974609 C 116.291016 25.974609 116.44043 25.966309 116.606445 25.949707 C 116.772461 25.933105 116.949547 25.908203 117.137695 25.875 L 117.137695 28.083008 C 116.672852 28.21582 116.318687 28.298828 116.075195 28.332031 C 115.831703 28.365234 115.49968 28.381836 115.079102 28.381836 C 114.049797 28.381836 113.302734 28.016605 112.837891 27.286133 C 112.594398 26.898762 112.422852 26.350914 112.323242 25.642578 C 111.714516 26.439457 110.840172 27.131182 109.700195 27.717773 C 108.560219 28.304365 107.304047 28.597656 105.931641 28.597656 C 104.282547 28.597656 102.935066 28.096848 101.88916 27.095215 C 100.843254 26.093582 100.320313 24.840176 100.320313 23.334961 C 100.320313 21.685863 100.834953 20.407557 101.864258 19.5 C 102.893562 18.592443 104.243805 18.033529 105.915039 17.823242 Z M 82.008789 3.529297 L 84.914063 3.529297 L 84.914063 12.37793 C 85.567062 11.525711 86.347328 10.87549 87.254883 10.427246 C 88.162437 9.979002 89.147453 9.754883 90.209961 9.754883 C 92.423515 9.754883 94.219231 10.515779 95.597168 12.037598 C 96.975105 13.559416 97.664063 15.803371 97.664063 18.769531 C 97.664063 21.580742 96.983406 23.916006 95.62207 25.775391 C 94.260735 27.634775 92.373711 28.564453 89.960938 28.564453 C 88.610672 28.564453 87.470711 28.237959 86.541016 27.584961 C 85.987625 27.19759 85.395508 26.577805 84.764648 25.725586 L 84.764648 28 L 82.008789 28 Z M 89.77832 25.924805 C 91.394211 25.924805 92.603348 25.282883 93.405762 23.999023 C 94.208176 22.715164 94.609375 21.02182 94.609375 18.918945 C 94.609375 17.048492 94.208176 15.499029 93.405762 14.270508 C 92.603348 13.041986 91.421883 12.427734 89.861328 12.427734 C 88.499992 12.427734 87.307457 12.931311 86.283691 13.938477 C 85.259926 14.945642 84.748047 16.605783 84.748047 18.918945 C 84.748047 20.590178 84.958328 21.945957 85.378906 22.986328 C 86.164719 24.945322 87.631172 25.924805 89.77832 25.924805 Z M 63.332031 10.219727 L 66.170898 10.219727 L 66.170898 12.743164 C 67.012047 11.702795 67.902992 10.955732 68.84375 10.501953 C 69.784508 10.048174 70.830399 9.821289 71.981445 9.821289 C 74.504898 9.821289 76.209305 10.701162 77.094727 12.460938 C 77.581711 13.423834 77.825195 14.801748 77.825195 16.594727 L 77.825195 28 L 74.787109 28 L 74.787109 16.793945 C 74.787109 15.709305 74.626633 14.834965 74.305664 14.170898 C 73.774414 13.064121 72.811531 12.510742 71.416992 12.510742 C 70.708656 12.510742 70.127609 12.582682 69.673828 12.726563 C 68.854813 12.970053 68.135422 13.457027 67.515625 14.1875 C 67.017578 14.774092 66.693848 15.380043 66.544434 16.005371 C 66.39502 16.630699 66.320313 17.524408 66.320313 18.686523 L 66.320313 28 L 63.332031 28 Z M 55.77832 10.302734 L 58.816406 10.302734 L 58.816406 28 L 55.77832 28 Z M 55.77832 3.612305 L 58.816406 3.612305 L 58.816406 6.999023 L 55.77832 6.999023 Z M 44.373047 25.991211 C 45.767586 25.991211 46.926914 25.407394 47.851074 24.239746 C 48.775234 23.072098 49.237305 21.326183 49.237305 19.001953 C 49.237305 17.585279 49.032555 16.367844 48.623047 15.349609 C 47.848305 13.390615 46.431652 12.411133 44.373047 12.411133 C 42.303375 12.411133 40.886723 13.445953 40.123047 15.515625 C 39.713539 16.622402 39.508789 18.027987 39.508789 19.732422 C 39.508789 21.104824 39.713539 22.272457 40.123047 23.235352 C 40.897789 25.072601 42.314442 25.991211 44.373047 25.991211 Z M 36.636719 10.302734 L 39.541992 10.302734 L 39.541992 12.660156 C 40.139652 11.852209 40.792641 11.226891 41.500977 10.78418 C 42.508144 10.120113 43.692375 9.788086 45.053711 9.788086 C 47.068043 9.788086 48.777988 10.560051 50.183594 12.104004 C 51.589199 13.647957 52.291992 15.853176 52.291992 18.719727 C 52.291992 22.593445 51.279308 25.360344 49.253906 27.020508 C 47.970047 28.071945 46.475922 28.597656 44.771484 28.597656 C 43.432285 28.597656 42.308926 28.304365 41.401367 27.717773 C 40.870113 27.38574 40.278 26.81576 39.625 26.007813 L 39.625 35.088867 L 36.636719 35.088867 Z M 16.748047 20.130859 C 16.825521 21.51433 17.152016 22.637691 17.727539 23.500977 C 18.823248 25.116871 20.754543 25.924805 23.521484 25.924805 C 24.761074 25.924805 25.889969 25.747723 26.908203 25.393555 C 28.878265 24.707354 29.863281 23.478851 29.863281 21.708008 C 29.863281 20.379875 29.448246 19.433598 28.618164 18.869141 C 27.777014 18.315752 26.45997 17.834312 24.666992 17.424805 L 21.363281 16.677734 C 19.205067 16.190752 17.677738 15.653975 16.78125 15.067383 C 15.231763 14.049149 14.457031 12.527353 14.457031 10.501953 C 14.457031 8.310535 15.215161 6.512051 16.731445 5.106445 C 18.247728 3.70084 20.394842 2.998047 23.172852 2.998047 C 25.729506 2.998047 27.901522 3.615065 29.688965 4.849121 C 31.476408 6.083178 32.370117 8.055977 32.370117 10.767578 L 29.265625 10.767578 C 29.099609 9.461582 28.745445 8.459965 28.203125 7.762695 C 27.195959 6.489902 25.486015 5.853516 23.073242 5.853516 C 21.125317 5.853516 19.725266 6.263018 18.873047 7.082031 C 18.020828 7.901045 17.594727 8.852859 17.594727 9.9375 C 17.594727 11.132818 18.092768 12.007158 19.088867 12.560547 C 19.741865 12.914715 21.219389 13.35742 23.521484 13.888672 L 26.941406 14.668945 C 28.590504 15.04525 29.863277 15.559893 30.759766 16.212891 C 32.309254 17.352871 33.083984 19.007477 33.083984 21.176758 C 33.083984 23.877293 32.101734 25.808588 30.137207 26.970703 C 28.17268 28.132818 25.889986 28.713867 23.289063 28.713867 C 20.256495 28.713867 17.882496 27.939137 16.166992 26.389648 C 14.451488 24.851231 13.610352 22.764988 13.643555 20.130859 Z"/>
</svg>
