<?xml version="1.0" encoding="UTF-8"?>
<!-- Generated by Pixelmator Pro 3.5.3 -->
<svg width="94" height="24" viewBox="0 0 94 24" xmlns="http://www.w3.org/2000/svg">
    <path id="Spinbara" fill="#ffffff" fill-rule="evenodd" stroke="none" d="M 80.152344 8.507813 C 80.888023 7.570309 82.151031 7.101563 83.941406 7.101563 C 85.106773 7.101563 86.141922 7.33268 87.046875 7.794922 C 87.951828 8.257164 88.404297 9.129551 88.404297 10.412109 L 88.404297 15.294922 C 88.404297 15.633465 88.410805 16.043617 88.423828 16.525391 C 88.443359 16.889977 88.498695 17.137369 88.589844 17.267578 C 88.680992 17.397787 88.817711 17.505207 89 17.589844 L 89 18 L 85.972656 18 C 85.888023 17.785156 85.82943 17.583334 85.796875 17.394531 C 85.76432 17.205729 85.738281 16.990887 85.71875 16.75 C 85.334633 17.166668 84.89193 17.521482 84.390625 17.814453 C 83.791664 18.159508 83.114586 18.332031 82.359375 18.332031 C 81.395828 18.332031 80.599937 18.056969 79.97168 17.506836 C 79.343422 16.956703 79.029297 16.177088 79.029297 15.167969 C 79.029297 13.859368 79.533852 12.912112 80.542969 12.326172 C 81.096359 12.00716 81.910149 11.779298 82.984375 11.642578 L 83.931641 11.525391 C 84.445969 11.460286 84.813805 11.378907 85.035156 11.28125 C 85.432297 11.111979 85.630859 10.84831 85.630859 10.490234 C 85.630859 10.054034 85.479492 9.752931 85.176758 9.586914 C 84.874023 9.420897 84.429688 9.337891 83.84375 9.337891 C 83.186195 9.337891 82.720703 9.500649 82.447266 9.826172 C 82.251953 10.067059 82.121742 10.392576 82.056641 10.802734 L 79.371094 10.802734 C 79.429688 9.87174 79.690102 9.106773 80.152344 8.507813 Z M 82.222656 15.988281 C 82.483078 16.203125 82.802078 16.310547 83.179688 16.310547 C 83.778648 16.310547 84.330399 16.134768 84.834961 15.783203 C 85.339523 15.431639 85.601563 14.790369 85.621094 13.859375 L 85.621094 12.824219 C 85.445313 12.934896 85.267906 13.024414 85.088867 13.092773 C 84.909828 13.161133 84.664063 13.224609 84.351563 13.283203 L 83.726563 13.400391 C 83.140625 13.504558 82.720703 13.63151 82.466797 13.78125 C 82.037109 14.035157 81.822266 14.429034 81.822266 14.962891 C 81.822266 15.438153 81.955727 15.779947 82.222656 15.988281 Z M 77.320313 9.923828 C 76.200516 9.923828 75.44857 10.288408 75.064453 11.017578 C 74.849609 11.427736 74.742188 12.05924 74.742188 12.912109 L 74.742188 18 L 71.939453 18 L 71.939453 7.355469 L 74.595703 7.355469 L 74.595703 9.210938 C 75.025391 8.501299 75.399734 8.016277 75.71875 7.755859 C 76.239586 7.31966 76.916664 7.101563 77.75 7.101563 C 77.802086 7.101563 77.846031 7.103189 77.881836 7.106445 C 77.917641 7.109701 77.997398 7.114584 78.121094 7.121094 L 78.121094 9.972656 C 77.945313 9.953125 77.789063 9.940104 77.652344 9.933594 C 77.515625 9.927083 77.404945 9.923828 77.320313 9.923828 Z M 61.246094 8.507813 C 61.981773 7.570309 63.244781 7.101563 65.035156 7.101563 C 66.200523 7.101563 67.235672 7.33268 68.140625 7.794922 C 69.045578 8.257164 69.498047 9.129551 69.498047 10.412109 L 69.498047 15.294922 C 69.498047 15.633465 69.504555 16.043617 69.517578 16.525391 C 69.537109 16.889977 69.592445 17.137369 69.683594 17.267578 C 69.774742 17.397787 69.911461 17.505207 70.09375 17.589844 L 70.09375 18 L 67.066406 18 C 66.981773 17.785156 66.92318 17.583334 66.890625 17.394531 C 66.85807 17.205729 66.832031 16.990887 66.8125 16.75 C 66.428383 17.166668 65.98568 17.521482 65.484375 17.814453 C 64.885414 18.159508 64.208336 18.332031 63.453125 18.332031 C 62.489578 18.332031 61.693687 18.056969 61.06543 17.506836 C 60.437172 16.956703 60.123047 16.177088 60.123047 15.167969 C 60.123047 13.859368 60.627598 12.912112 61.636719 12.326172 C 62.190105 12.00716 63.003902 11.779298 64.078125 11.642578 L 65.025391 11.525391 C 65.539719 11.460286 65.907555 11.378907 66.128906 11.28125 C 66.526047 11.111979 66.724609 10.84831 66.724609 10.490234 C 66.724609 10.054034 66.573242 9.752931 66.270508 9.586914 C 65.967773 9.420897 65.523438 9.337891 64.9375 9.337891 C 64.279945 9.337891 63.814453 9.500649 63.541016 9.826172 C 63.345703 10.067059 63.215496 10.392576 63.150391 10.802734 L 60.464844 10.802734 C 60.523438 9.87174 60.783852 9.106773 61.246094 8.507813 Z M 63.316406 15.988281 C 63.576824 16.203125 63.895832 16.310547 64.273438 16.310547 C 64.872398 16.310547 65.424149 16.134768 65.928711 15.783203 C 66.433273 15.431639 66.695313 14.790369 66.714844 13.859375 L 66.714844 12.824219 C 66.539063 12.934896 66.361656 13.024414 66.182617 13.092773 C 66.003578 13.161133 65.757813 13.224609 65.445313 13.283203 L 64.820313 13.400391 C 64.234375 13.504558 63.814453 13.63151 63.560547 13.78125 C 63.130856 14.035157 62.916016 14.429034 62.916016 14.962891 C 62.916016 15.438153 63.049477 15.779947 63.316406 15.988281 Z M 54.410156 18.283203 C 53.531246 18.283203 52.824871 18.107424 52.291016 17.755859 C 51.972004 17.547525 51.626953 17.182945 51.255859 16.662109 L 51.255859 18 L 48.53125 18 L 48.53125 3.625 L 51.304688 3.625 L 51.304688 8.742188 C 51.65625 8.247394 52.043617 7.869793 52.466797 7.609375 C 52.968102 7.283852 53.606117 7.121094 54.380859 7.121094 C 55.780605 7.121094 56.875973 7.625647 57.666992 8.634766 C 58.458012 9.643886 58.853516 10.945955 58.853516 12.541016 C 58.853516 14.19467 58.462894 15.565099 57.681641 16.652344 C 56.900387 17.73959 55.809902 18.283203 54.410156 18.283203 Z M 55.933594 12.833984 C 55.933594 12.078773 55.835938 11.453778 55.640625 10.958984 C 55.269531 10.02148 54.585941 9.552734 53.589844 9.552734 C 52.580723 9.552734 51.887371 10.011714 51.509766 10.929688 C 51.314453 11.417972 51.216797 12.049476 51.216797 12.824219 C 51.216797 13.735682 51.418617 14.490883 51.822266 15.089844 C 52.225914 15.688805 52.841141 15.988281 53.667969 15.988281 C 54.384117 15.988281 54.940754 15.69857 55.337891 15.119141 C 55.735027 14.539711 55.933594 13.778 55.933594 12.833984 Z M 41.421875 9.416016 C 40.477859 9.416016 39.830078 9.816402 39.478516 10.617188 C 39.296223 11.040367 39.205078 11.580726 39.205078 12.238281 L 39.205078 18 L 36.431641 18 L 36.431641 7.375 L 39.117188 7.375 L 39.117188 8.927734 C 39.475262 8.380857 39.813801 7.98698 40.132813 7.746094 C 40.70573 7.316404 41.431637 7.101563 42.310547 7.101563 C 43.410812 7.101563 44.310867 7.389645 45.010742 7.96582 C 45.710617 8.541995 46.060547 9.497389 46.060547 10.832031 L 46.060547 18 L 43.208984 18 L 43.208984 11.525391 C 43.208984 10.965492 43.134117 10.535809 42.984375 10.236328 C 42.710938 9.68945 42.190109 9.416016 41.421875 9.416016 Z M 33.716797 7.355469 L 33.716797 18 L 30.894531 18 L 30.894531 7.355469 Z M 33.716797 3.517578 L 33.716797 6.085938 L 30.894531 6.085938 L 30.894531 3.517578 Z M 27.554688 8.498047 C 28.414066 9.41602 28.84375 10.763663 28.84375 12.541016 C 28.84375 14.416025 28.422205 15.845047 27.579102 16.828125 C 26.735998 17.811203 25.650396 18.302734 24.322266 18.302734 C 23.475906 18.302734 22.772789 18.091148 22.212891 17.667969 C 21.9069 17.433594 21.607424 17.091799 21.314453 16.642578 L 21.314453 22.189453 L 18.560547 22.189453 L 18.560547 7.355469 L 21.226563 7.355469 L 21.226563 8.927734 C 21.526043 8.465492 21.845051 8.100913 22.183594 7.833984 C 22.802086 7.358721 23.537756 7.121094 24.390625 7.121094 C 25.634121 7.121094 26.688797 7.580074 27.554688 8.498047 Z M 25.972656 12.677734 C 25.972656 11.857418 25.785484 11.131514 25.411133 10.5 C 25.036781 9.868486 24.429691 9.552734 23.589844 9.552734 C 22.580725 9.552734 21.887371 10.031245 21.509766 10.988281 C 21.314451 11.496097 21.216797 12.140621 21.216797 12.921875 C 21.216797 14.15886 21.54557 15.027992 22.203125 15.529297 C 22.593752 15.822268 23.055986 15.96875 23.589844 15.96875 C 24.364588 15.96875 24.955402 15.669273 25.362305 15.070313 C 25.769207 14.471352 25.972656 13.673833 25.972656 12.677734 Z M 10.748047 15.919922 C 11.457685 15.919922 12.033852 15.841798 12.476563 15.685547 C 13.31641 15.386066 13.736328 14.829432 13.736328 14.015625 C 13.736328 13.540362 13.527997 13.172527 13.111328 12.912109 C 12.694659 12.658202 12.040369 12.433595 11.148438 12.238281 L 9.625 11.896484 C 8.127597 11.557941 7.092451 11.190106 6.519531 10.792969 C 5.549474 10.128903 5.064453 9.090502 5.064453 7.677734 C 5.064453 6.388666 5.533198 5.317713 6.470703 4.464844 C 7.408208 3.611975 8.785147 3.185547 10.601563 3.185547 C 12.118497 3.185547 13.41243 3.587561 14.483398 4.391602 C 15.554367 5.195642 16.115885 6.362623 16.167969 7.892578 L 13.277344 7.892578 C 13.22526 7.026688 12.84766 6.411461 12.144531 6.046875 C 11.675779 5.805988 11.093102 5.685547 10.396484 5.685547 C 9.621741 5.685547 9.003258 5.841795 8.541016 6.154297 C 8.078773 6.466799 7.847656 6.902992 7.847656 7.462891 C 7.847656 7.977217 8.075519 8.361327 8.53125 8.615234 C 8.824221 8.784506 9.449214 8.983071 10.40625 9.210938 L 12.886719 9.806641 C 13.973964 10.067059 14.794268 10.415362 15.347656 10.851563 C 16.207035 11.528649 16.636719 12.508457 16.636719 13.791016 C 16.636719 15.106127 16.133795 16.198238 15.12793 17.067383 C 14.122066 17.936527 12.701181 18.371094 10.865234 18.371094 C 8.990225 18.371094 7.51563 17.943039 6.441406 17.086914 C 5.367182 16.230789 4.830078 15.054044 4.830078 13.556641 L 7.701172 13.556641 C 7.792318 14.214196 7.971353 14.705728 8.238281 15.03125 C 8.726565 15.623701 9.563145 15.919922 10.748047 15.919922 Z"/>
</svg>
